<svg width="10" height="14" viewBox="0 0 10 14" fill="none" xmlns="http://www.w3.org/2000/svg">
<path d="M4.47672 0.00492919L4.47766 7.48041C4.42804 8.23111 4.05017 8.57506 3.49311 9.01706C3.05382 9.36588 1.87453 10.2474 1.76255 10.7905C1.43374 12.3861 3.90711 12.9233 5.10457 12.9038C6.28143 12.8848 8.51399 12.3289 8.23874 10.8088C8.1468 10.3008 7.08978 9.46248 6.67165 9.12518C6.2921 8.81918 5.95318 8.6481 5.71463 8.19675C5.48918 7.77004 5.5036 7.34693 5.50734 6.88658C5.52569 4.59294 5.49161 2.29839 5.50659 0.00492919C5.5315 -0.0193565 5.60078 0.0529608 5.618 0.0727491C6.88624 1.53528 7.97921 3.14569 8.77015 4.90163C9.68598 6.93497 10.7297 10.1812 9.28546 12.1713C7.87941 14.109 4.58589 14.42 2.46642 13.5122C-0.576557 12.2087 -0.273776 9.13849 0.587568 6.54946C1.38749 4.14482 2.72894 1.93681 4.4198 0.017162L4.47672 0.00492919Z" fill="#18181B"/>
</svg>
