<svg width="109" height="66" viewBox="0 0 109 66" fill="none" xmlns="http://www.w3.org/2000/svg">
<g clip-path="url(#clip0_8_14)">
<path d="M107.418 43.9075H65.9739C65.1005 43.9075 64.3915 43.2123 64.3915 42.3559C64.3915 41.4995 65.1005 40.8043 65.9739 40.8043H107.418C108.291 40.8043 109 41.4995 109 42.3559C109 43.2123 108.291 43.9075 107.418 43.9075Z" fill="#D4D4D8"/>
<path d="M78.5631 56.2487C77.6898 56.2487 76.9807 55.5535 76.9807 54.6971V11.2581C76.9807 10.4017 77.6898 9.7065 78.5631 9.7065C79.4365 9.7065 80.1455 10.4017 80.1455 11.2581V54.6971C80.1455 55.5535 79.4365 56.2487 78.5631 56.2487Z" fill="#D4D4D8"/>
<path d="M78.5631 56.2487C77.6898 56.2487 76.9807 55.5535 76.9807 54.6971V1.55161C76.9807 0.695239 77.6898 0 78.5631 0C79.4365 0 80.1455 0.695239 80.1455 1.55161V54.7001C80.1455 55.5565 79.4365 56.2517 78.5631 56.2517V56.2487Z" fill="#D4D4D8"/>
<path d="M78.5631 48.6847C82.1278 48.6847 85.0175 45.8512 85.0175 42.3559C85.0175 38.8606 82.1278 36.0271 78.5631 36.0271C74.9985 36.0271 72.1088 38.8606 72.1088 42.3559C72.1088 45.8512 74.9985 48.6847 78.5631 48.6847Z" fill="#D4D4D8"/>
<path d="M55.0828 66C54.9215 66 54.7602 65.9403 54.6354 65.818C54.3889 65.5763 54.3889 65.1824 54.6354 64.9407L87.1051 33.1029C87.3516 32.8613 87.7532 32.8613 87.9997 33.1029C88.2462 33.3446 88.2462 33.7385 87.9997 33.9802L55.5301 65.818C55.4053 65.9403 55.244 66 55.0828 66Z" fill="#D4D4D8"/>
<path d="M1.66162 11.3715C2.27023 11.6848 3.24706 11.9981 4.23606 11.9981C5.30114 11.9981 5.86715 11.5654 5.86715 10.909C5.86715 10.2525 5.38026 9.92432 4.14477 9.50359C2.4376 8.90682 1.31166 7.97884 1.31166 6.51675C1.31166 4.79805 2.7906 3.50007 5.19767 3.50007C6.36926 3.50007 7.20915 3.72386 7.81776 4.00733L7.30044 5.83046C6.90484 5.63651 6.15929 5.35305 5.16724 5.35305C4.1752 5.35305 3.67309 5.81554 3.67309 6.3228C3.67309 6.96433 4.23606 7.2478 5.57806 7.74312C7.39173 8.39957 8.22858 9.32755 8.22858 10.7449C8.22858 12.4337 6.91701 13.866 4.09912 13.866C2.92754 13.866 1.76813 13.5527 1.18994 13.2394L1.66162 11.3715Z" fill="#D4D4D8"/>
<path d="M13.6665 3.64628V13.7138H11.3507V3.64628H13.6665Z" fill="#D4D4D8"/>
<path d="M17.2147 3.64628H19.5305V11.8012H23.6143V13.7138H17.2147V3.64628Z" fill="#D4D4D8"/>
<path d="M27.9385 13.7138L24.6489 3.64628H27.1929L28.4436 7.90425C28.7936 9.11569 29.1131 10.2496 29.3566 11.5058H29.4022C29.6609 10.2943 29.9804 9.10077 30.3304 7.949L31.6419 3.64628H34.1099L30.6529 13.7138H27.9415H27.9385Z" fill="#D4D4D8"/>
<path d="M42.8375 9.45884H39.058V11.8489H43.2787V13.7168H36.7422V3.64628H43.0657V5.51417H39.058V7.60586H42.8375V9.45884Z" fill="#D4D4D8"/>
<path d="M46.3887 3.78055C47.1342 3.6612 48.2328 3.57168 49.4804 3.57168C51.005 3.57168 52.0701 3.79547 52.8004 4.3624C53.4243 4.83982 53.759 5.55893 53.759 6.48393C53.759 7.75505 52.8309 8.63529 51.9453 8.9486V8.99336C52.6604 9.27682 53.0561 9.93327 53.3178 10.8613C53.6373 12.01 53.9416 13.3259 54.1394 13.7138H51.7627C51.6106 13.4154 51.3519 12.6098 51.0628 11.3685C50.7737 10.0974 50.3325 9.76916 49.3709 9.75424H48.6862V13.7138H46.3856V3.78055H46.3887ZM48.6892 8.11312H49.6022C50.7585 8.11312 51.4463 7.54618 51.4463 6.66296C51.4463 5.77974 50.8072 5.27248 49.7391 5.27248C49.1761 5.27248 48.8566 5.30232 48.6892 5.34708V8.11013V8.11312Z" fill="#D4D4D8"/>
<path d="M2.66578 28.654L0.228271 18.5835H2.71142L3.48741 22.7221C3.71564 23.9335 3.92865 25.2315 4.09602 26.246H4.12645C4.29382 25.1569 4.53727 23.9455 4.79593 22.6893L5.66321 18.5805H8.13114L8.95278 22.8235C9.18101 24.0052 9.34838 25.0793 9.50053 26.1983H9.53096C9.68311 25.0793 9.91135 23.8977 10.1244 22.6863L10.9612 18.5775H13.3226L10.6721 28.6451H8.15853L7.29125 24.3125C7.09345 23.298 6.92609 22.3551 6.80436 21.2063H6.77393C6.59135 22.3431 6.42398 23.298 6.18053 24.3125L5.20675 28.6451H2.66273L2.66578 28.654Z" fill="#D4D4D8"/>
<path d="M17.6255 26.067L16.8952 28.651H14.5033L17.6255 18.5835H20.6716L23.8699 28.651H21.3563L20.5651 26.067H17.6255ZM20.2304 24.3662L19.5913 22.2298C19.4087 21.633 19.2262 20.884 19.074 20.2873H19.0436C18.8914 20.884 18.7393 21.6479 18.5719 22.2298L17.9633 24.3662H20.2334H20.2304Z" fill="#D4D4D8"/>
<path d="M27.4821 20.4961H24.7098V18.5835H32.6005V20.4961H29.7979V28.651H27.4821V20.4961Z" fill="#D4D4D8"/>
<path d="M42.4418 28.3825C42.031 28.5764 41.0541 28.8151 39.8217 28.8151C36.2704 28.8151 34.4446 26.6339 34.4446 23.7664C34.4446 20.332 36.9429 18.4343 40.0499 18.4343C41.255 18.4343 42.1679 18.6581 42.5787 18.8819L42.0918 20.6752C41.6354 20.4812 40.9811 20.3022 40.1412 20.3022C38.3123 20.3022 36.8821 21.3913 36.8821 23.6322C36.8821 25.6493 38.0993 26.9174 40.1564 26.9174C40.8716 26.9174 41.6354 26.7831 42.107 26.5892L42.4418 28.3825Z" fill="#D4D4D8"/>
<path d="M47.8342 18.5835V22.4535H51.6594V18.5835H53.9751V28.651H51.6594V24.4378H47.8342V28.651H45.5184V18.5835H47.8342Z" fill="#D4D4D8"/>
<path d="M8.88269 43.5912C8.36537 43.8001 7.28203 44.1432 5.88221 44.1432C4.4824 44.1432 3.29256 43.8001 2.25487 42.8273C1.4028 42.0068 0.836792 40.6461 0.836792 39.0319C0.836792 36.239 2.71133 33.8638 6.1987 33.8638C7.2942 33.8638 8.19495 34.1175 8.59055 34.3114L8.34711 34.9082C7.81457 34.6546 7.14205 34.4755 6.15305 34.4755C3.33516 34.4755 1.59756 36.2688 1.59756 39.002C1.59756 41.7353 3.28951 43.5286 6.00089 43.5286C7.08119 43.5286 7.76892 43.3794 8.14931 43.1854V39.6286H5.77266V39.0468H8.87965V43.5882L8.88269 43.5912Z" fill="#D4D4D8"/>
<path d="M12.2483 40.5119L10.9824 44.0388H10.2368L13.9555 33.9713H14.6554L18.3436 44.0388H17.598L16.3017 40.5119H12.2483ZM16.0856 39.9151L14.8349 36.5553C14.5762 35.8541 14.4393 35.3438 14.3024 34.7769H14.2567C14.1198 35.3587 13.9524 35.8839 13.7242 36.5254L12.4735 39.9181H16.0856V39.9151Z" fill="#D4D4D8"/>
<path d="M19.926 33.9713H20.6564V43.442H25.2271V44.0388H19.926V33.9713Z" fill="#D4D4D8"/>
<path d="M26.7516 33.9713H27.4819V43.442H32.0526V44.0388H26.7516V33.9713Z" fill="#D4D4D8"/>
<path d="M38.4036 39.0349H34.3046V43.442H38.8905V44.0388H33.5742V33.9713H38.647V34.568H34.3046V38.4381H38.4036V39.0349Z" fill="#D4D4D8"/>
<path d="M40.6737 34.1204C41.3128 33.9712 42.1831 33.8967 42.8982 33.8967C44.2402 33.8967 45.0923 34.1801 45.6704 34.7471C46.1117 35.1499 46.3856 35.8212 46.3856 36.5254C46.3856 37.8861 45.5639 38.7514 44.3741 39.1542V39.1841C45.1957 39.4377 45.7161 40.1986 45.9595 41.3205C46.3095 42.89 46.5073 43.636 46.7203 44.0388H45.9747C45.8074 43.7404 45.5944 42.8572 45.3205 41.589C45.001 40.1389 44.3619 39.4824 43.0047 39.4228H41.404V44.0388H40.6737V34.1204ZM41.404 38.8409H43.0351C44.6206 38.8409 45.6552 37.9756 45.6552 36.6448C45.6552 35.1051 44.4958 34.4785 42.883 34.4785C42.1831 34.4785 41.6657 34.5531 41.404 34.6128V38.8409Z" fill="#D4D4D8"/>
<path d="M50.5303 44.0388V39.6764L47.2711 33.9713H48.0775L49.7695 36.973C50.2107 37.7637 50.5759 38.4232 50.9411 39.1393H50.9715C51.2758 38.4679 51.7018 37.7637 52.1583 36.9581L53.9111 33.9713H54.7175L51.2606 39.6913V44.0388H50.5303Z" fill="#D4D4D8"/>
</g>
<defs>
<clipPath id="clip0_8_14">
<rect width="109" height="66" fill="white"/>
</clipPath>
</defs>
</svg>
