<svg width="55" height="66" viewBox="0 0 55 66" fill="none" xmlns="http://www.w3.org/2000/svg">
<path d="M53.4176 43.9075H11.9739C11.1005 43.9075 10.3915 43.2123 10.3915 42.3559C10.3915 41.4995 11.1005 40.8043 11.9739 40.8043H53.4176C54.2909 40.8043 55 41.4995 55 42.3559C55 43.2123 54.2909 43.9075 53.4176 43.9075Z" fill="#D4D4D8"/>
<path d="M24.5631 56.2487C23.6898 56.2487 22.9807 55.5535 22.9807 54.6971V11.2581C22.9807 10.4017 23.6898 9.7065 24.5631 9.7065C25.4365 9.7065 26.1455 10.4017 26.1455 11.2581V54.6971C26.1455 55.5535 25.4365 56.2487 24.5631 56.2487Z" fill="#D4D4D8"/>
<path d="M24.5631 56.2487C23.6898 56.2487 22.9807 55.5535 22.9807 54.6971V1.55161C22.9807 0.695239 23.6898 0 24.5631 0C25.4365 0 26.1455 0.695239 26.1455 1.55161V54.7001C26.1455 55.5565 25.4365 56.2517 24.5631 56.2517V56.2487Z" fill="#D4D4D8"/>
<path d="M24.5631 48.6847C28.1278 48.6847 31.0175 45.8512 31.0175 42.3559C31.0175 38.8606 28.1278 36.0271 24.5631 36.0271C20.9985 36.0271 18.1088 38.8606 18.1088 42.3559C18.1088 45.8512 20.9985 48.6847 24.5631 48.6847Z" fill="#D4D4D8"/>
<path d="M1.08276 66C0.921478 66 0.760195 65.9403 0.635428 65.818C0.388939 65.5763 0.388939 65.1824 0.635428 64.9407L33.1051 33.1029C33.3516 32.8613 33.7532 32.8613 33.9997 33.1029C34.2462 33.3446 34.2462 33.7385 33.9997 33.9802L1.53009 65.818C1.40533 65.9403 1.24404 66 1.08276 66Z" fill="#D4D4D8"/>
</svg>
